<svg width="197" height="5" viewBox="0 0 197 5" fill="none" xmlns="http://www.w3.org/2000/svg">
<circle cx="2.5" cy="2.5" r="2.5" fill="#D9D9D9"/>
<circle cx="10.5" cy="2.5" r="2.5" fill="#D9D9D9"/>
<circle cx="18.5" cy="2.5" r="2.5" fill="#D9D9D9"/>
<circle cx="26.5" cy="2.5" r="2.5" fill="#D9D9D9"/>
<circle cx="34.5" cy="2.5" r="2.5" fill="#D9D9D9"/>
<circle cx="42.5" cy="2.5" r="2.5" fill="#D9D9D9"/>
<circle cx="50.5" cy="2.5" r="2.5" fill="#D9D9D9"/>
<circle cx="58.5" cy="2.5" r="2.5" fill="#D9D9D9"/>
<circle cx="66.5" cy="2.5" r="2.5" fill="#D9D9D9"/>
<circle cx="74.5" cy="2.5" r="2.5" fill="#D9D9D9"/>
<circle cx="82.5" cy="2.5" r="2.5" fill="#D9D9D9"/>
<circle cx="90.5" cy="2.5" r="2.5" fill="#D9D9D9"/>
<circle cx="98.5" cy="2.5" r="2.5" fill="#D9D9D9"/>
<circle cx="106.5" cy="2.5" r="2.5" fill="#D9D9D9"/>
<circle cx="114.5" cy="2.5" r="2.5" fill="#D9D9D9"/>
<circle cx="122.5" cy="2.5" r="2.5" fill="#D9D9D9"/>
<circle cx="130.5" cy="2.5" r="2.5" fill="#D9D9D9"/>
<circle cx="138.5" cy="2.5" r="2.5" fill="#D9D9D9"/>
<circle cx="146.5" cy="2.5" r="2.5" fill="#D9D9D9"/>
<circle cx="154.5" cy="2.5" r="2.5" fill="#D9D9D9"/>
<circle cx="162.5" cy="2.5" r="2.5" fill="#D9D9D9"/>
<circle cx="170.5" cy="2.5" r="2.5" fill="#D9D9D9"/>
<circle cx="178.5" cy="2.5" r="2.5" fill="#D9D9D9"/>
<circle cx="186.5" cy="2.5" r="2.5" fill="#D9D9D9"/>
<circle cx="194.5" cy="2.5" r="2.5" fill="#D9D9D9"/>
</svg>
