<svg width="1440" height="1115" viewBox="0 0 1440 1115" fill="none" xmlns="http://www.w3.org/2000/svg">
<mask id="mask0_494_4053" style="mask-type:alpha" maskUnits="userSpaceOnUse" x="0" y="0" width="1440" height="1115">
<rect width="1440" height="1115" fill="#D9D9D9"/>
</mask>
<g mask="url(#mask0_494_4053)">
<rect x="-89" y="-895" width="1582" height="3871" fill="url(#paint0_linear_494_4053)"/>
<line x1="0.5" y1="-52.6124" x2="0.499952" y2="1185" stroke="#06F421" stroke-opacity="0.25"/>
<line x1="36.5" y1="-52.6124" x2="36.5" y2="1185" stroke="#06F421" stroke-opacity="0.25"/>
<line x1="72.5" y1="-52.6124" x2="72.5" y2="1185" stroke="#06F421" stroke-opacity="0.25"/>
<line x1="108.5" y1="-52.6124" x2="108.5" y2="1185" stroke="#06F421" stroke-opacity="0.25"/>
<line x1="144.5" y1="-52.6124" x2="144.5" y2="1185" stroke="#06F421" stroke-opacity="0.25"/>
<line x1="180.5" y1="-52.6124" x2="180.5" y2="1185" stroke="#06F421" stroke-opacity="0.25"/>
<line x1="216.5" y1="-52.6124" x2="216.5" y2="1185" stroke="#06F421" stroke-opacity="0.25"/>
<line x1="252.5" y1="-52.6124" x2="252.5" y2="1185" stroke="#06F421" stroke-opacity="0.25"/>
<line x1="288.5" y1="-52.6124" x2="288.5" y2="1185" stroke="#06F421" stroke-opacity="0.25"/>
<line x1="324.5" y1="-52.6124" x2="324.5" y2="1185" stroke="#06F421" stroke-opacity="0.25"/>
<line x1="360.5" y1="-52.6124" x2="360.5" y2="1185" stroke="#06F421" stroke-opacity="0.25"/>
<line x1="396.5" y1="-52.6124" x2="396.5" y2="1185" stroke="#06F421" stroke-opacity="0.25"/>
<line x1="432.5" y1="-52.6124" x2="432.5" y2="1185" stroke="#06F421" stroke-opacity="0.25"/>
<line x1="468.5" y1="-52.6124" x2="468.5" y2="1185" stroke="#06F421" stroke-opacity="0.25"/>
<line x1="504.5" y1="-52.6124" x2="504.5" y2="1185" stroke="#06F421" stroke-opacity="0.25"/>
<line x1="540.5" y1="-52.6124" x2="540.5" y2="1185" stroke="#06F421" stroke-opacity="0.25"/>
<line x1="576.5" y1="-52.6124" x2="576.5" y2="1185" stroke="#06F421" stroke-opacity="0.25"/>
<line x1="612.5" y1="-52.6124" x2="612.5" y2="1185" stroke="#06F421" stroke-opacity="0.25"/>
<line x1="648.5" y1="-52.6124" x2="648.5" y2="1185" stroke="#06F421" stroke-opacity="0.25"/>
<line x1="684.5" y1="-52.6124" x2="684.5" y2="1185" stroke="#06F421" stroke-opacity="0.25"/>
<line x1="720.5" y1="-52.6124" x2="720.5" y2="1185" stroke="#06F421" stroke-opacity="0.25"/>
<line x1="756.5" y1="-52.6124" x2="756.5" y2="1185" stroke="#06F421" stroke-opacity="0.25"/>
<line x1="792.5" y1="-52.6124" x2="792.5" y2="1185" stroke="#06F421" stroke-opacity="0.25"/>
<line x1="828.5" y1="-52.6124" x2="828.5" y2="1185" stroke="#06F421" stroke-opacity="0.25"/>
<line x1="864.5" y1="-52.6124" x2="864.5" y2="1185" stroke="#06F421" stroke-opacity="0.25"/>
<line x1="900.5" y1="-52.6124" x2="900.5" y2="1185" stroke="#06F421" stroke-opacity="0.25"/>
<line x1="936.5" y1="-52.6124" x2="936.5" y2="1185" stroke="#06F421" stroke-opacity="0.25"/>
<line x1="972.5" y1="-52.6124" x2="972.5" y2="1185" stroke="#06F421" stroke-opacity="0.25"/>
<line x1="1008.5" y1="-52.6124" x2="1008.5" y2="1185" stroke="#06F421" stroke-opacity="0.25"/>
<line x1="1044.5" y1="-52.6124" x2="1044.5" y2="1185" stroke="#06F421" stroke-opacity="0.25"/>
<line x1="1080.5" y1="-52.6124" x2="1080.5" y2="1185" stroke="#06F421" stroke-opacity="0.25"/>
<line x1="1116.5" y1="-52.6124" x2="1116.5" y2="1185" stroke="#06F421" stroke-opacity="0.25"/>
<line x1="1152.5" y1="-52.6124" x2="1152.5" y2="1185" stroke="#06F421" stroke-opacity="0.25"/>
<line x1="1188.5" y1="-52.6124" x2="1188.5" y2="1185" stroke="#06F421" stroke-opacity="0.25"/>
<line x1="1224.5" y1="-52.6124" x2="1224.5" y2="1185" stroke="#06F421" stroke-opacity="0.25"/>
<line x1="1260.5" y1="-52.6124" x2="1260.5" y2="1185" stroke="#06F421" stroke-opacity="0.25"/>
<line x1="1296.5" y1="-52.6124" x2="1296.5" y2="1185" stroke="#06F421" stroke-opacity="0.25"/>
<line x1="1332.5" y1="-52.6124" x2="1332.5" y2="1185" stroke="#06F421" stroke-opacity="0.25"/>
<line x1="1368.5" y1="-52.6124" x2="1368.5" y2="1185" stroke="#06F421" stroke-opacity="0.25"/>
<line x1="1404.5" y1="-52.6124" x2="1404.5" y2="1185" stroke="#06F421" stroke-opacity="0.25"/>
<line x1="1492" y1="24.5" x2="-72" y2="24.5001" stroke="#06F421" stroke-opacity="0.25"/>
<line x1="1493" y1="60.5" x2="-71" y2="60.5001" stroke="#06F421" stroke-opacity="0.25"/>
<line x1="1494" y1="96.5" x2="-70" y2="96.5001" stroke="#06F421" stroke-opacity="0.25"/>
<line x1="1495" y1="132.5" x2="-69" y2="132.5" stroke="#06F421" stroke-opacity="0.25"/>
<line x1="1496" y1="168.5" x2="-68" y2="168.5" stroke="#06F421" stroke-opacity="0.25"/>
<line x1="1497" y1="204.5" x2="-67" y2="204.5" stroke="#06F421" stroke-opacity="0.25"/>
<line x1="1498" y1="240.5" x2="-66" y2="240.5" stroke="#06F421" stroke-opacity="0.25"/>
<line x1="1499" y1="276.5" x2="-65" y2="276.5" stroke="#06F421" stroke-opacity="0.25"/>
<line x1="1500" y1="312.5" x2="-64" y2="312.5" stroke="#06F421" stroke-opacity="0.25"/>
<line x1="1501" y1="348.5" x2="-63" y2="348.5" stroke="#06F421" stroke-opacity="0.25"/>
<line x1="1502" y1="384.5" x2="-62" y2="384.5" stroke="#06F421" stroke-opacity="0.25"/>
<line x1="1503" y1="420.5" x2="-61" y2="420.5" stroke="#06F421" stroke-opacity="0.25"/>
<line x1="1504" y1="456.5" x2="-60" y2="456.5" stroke="#06F421" stroke-opacity="0.25"/>
<line x1="1505" y1="492.5" x2="-59" y2="492.5" stroke="#06F421" stroke-opacity="0.25"/>
<line x1="1506" y1="528.5" x2="-58" y2="528.5" stroke="#06F421" stroke-opacity="0.25"/>
<line x1="1507" y1="564.5" x2="-57" y2="564.5" stroke="#06F421" stroke-opacity="0.25"/>
<line x1="1508" y1="600.5" x2="-56" y2="600.5" stroke="#06F421" stroke-opacity="0.25"/>
<line x1="1509" y1="636.5" x2="-55" y2="636.5" stroke="#06F421" stroke-opacity="0.25"/>
<line x1="1510" y1="672.5" x2="-54" y2="672.5" stroke="#06F421" stroke-opacity="0.25"/>
<line x1="1511" y1="708.5" x2="-53" y2="708.5" stroke="#06F421" stroke-opacity="0.25"/>
<line x1="1512" y1="744.5" x2="-52" y2="744.5" stroke="#06F421" stroke-opacity="0.25"/>
<line x1="1513" y1="780.5" x2="-51" y2="780.5" stroke="#06F421" stroke-opacity="0.25"/>
<line x1="1514" y1="816.5" x2="-50" y2="816.5" stroke="#06F421" stroke-opacity="0.25"/>
<line x1="1515" y1="852.5" x2="-49" y2="852.5" stroke="#06F421" stroke-opacity="0.25"/>
<line x1="1516" y1="888.5" x2="-48" y2="888.5" stroke="#06F421" stroke-opacity="0.25"/>
<line x1="1517" y1="924.5" x2="-47" y2="924.5" stroke="#06F421" stroke-opacity="0.25"/>
<line x1="1518" y1="960.5" x2="-46" y2="960.5" stroke="#06F421" stroke-opacity="0.25"/>
<line x1="1517" y1="996.5" x2="-47" y2="996.5" stroke="#06F421" stroke-opacity="0.25"/>
<line x1="1517" y1="1032.5" x2="-47" y2="1032.5" stroke="#06F421" stroke-opacity="0.25"/>
<line x1="1517" y1="1068.5" x2="-47" y2="1068.5" stroke="#06F421" stroke-opacity="0.25"/>
<line x1="1517" y1="1104.5" x2="-47" y2="1104.5" stroke="#06F421" stroke-opacity="0.25"/>
<rect x="-17" y="-62" width="1471" height="86" fill="#000B03"/>
<rect x="-15" y="1105" width="1471" height="86" fill="#000B03"/>
<path d="M1285.85 33.3419L1512.88 174.695L1276.95 300.64L1285.85 33.3419Z" stroke="#06F421" stroke-opacity="0.3" stroke-width="3"/>
<path d="M1370.71 881.551L1482.84 919.406L1393.99 997.584L1370.71 881.551Z" stroke="#06F421" stroke-opacity="0.3" stroke-width="3"/>
<path d="M37.6296 1041.12L79.1895 1032.52L65.8607 1072.81L37.6296 1041.12Z" stroke="#06F421" stroke-opacity="0.3" stroke-width="3"/>
<circle cx="36" cy="251" r="150.5" stroke="#06F421" stroke-opacity="0.3" stroke-width="3"/>
<circle cx="710" cy="410" r="69.5" stroke="#06F421" stroke-opacity="0.3" stroke-width="3"/>
<circle cx="1306" cy="705" r="34.5" stroke="#06F421" stroke-opacity="0.3" stroke-width="3"/>
<rect x="559.714" y="30.786" width="243.759" height="55.805" transform="rotate(12.3421 559.714 30.786)" stroke="#06F421" stroke-opacity="0.3" stroke-width="3"/>
<rect x="2.12126" y="0.0166042" width="73.4139" height="302.655" transform="matrix(0.70155 0.71262 0.71262 -0.70155 -135.379 690.949)" stroke="#06F421" stroke-opacity="0.3" stroke-width="3"/>
<rect x="0.446114" y="-2.07388" width="31.3255" height="134.302" transform="matrix(0.839998 -0.542589 -0.542589 -0.839998 778.445 737.384)" stroke="#06F421" stroke-opacity="0.3" stroke-width="3"/>
<rect x="-1.96097" y="-0.809071" width="58.121" height="241.484" transform="matrix(-0.383966 -0.923347 -0.923347 0.383966 1563.77 462.092)" stroke="#06F421" stroke-opacity="0.3" stroke-width="3"/>
<g style="mix-blend-mode:multiply" opacity="0.5">
<rect x="-148" y="-1007" width="1737" height="3983" fill="url(#paint1_radial_494_4053)"/>
</g>
</g>
<defs>
<linearGradient id="paint0_linear_494_4053" x1="-1385" y1="8509.72" x2="5654.77" y2="6185.72" gradientUnits="userSpaceOnUse">
<stop stop-color="#000B03"/>
</linearGradient>
<radialGradient id="paint1_radial_494_4053" cx="0" cy="0" r="1" gradientUnits="userSpaceOnUse" gradientTransform="translate(-223.5 -2510) rotate(64.4035) scale(3412.95 5289.77)">
<stop offset="0.857626"/>
<stop offset="1" stop-color="#D9D9D9" stop-opacity="0"/>
</radialGradient>
</defs>
</svg>
