<svg width="69" height="69" viewBox="0 0 69 69" fill="none" xmlns="http://www.w3.org/2000/svg">
<path d="M13.189 13.1899C13.1894 13.1895 13.1898 13.1891 13.1901 13.1887C24.7695 1.61057 43.5396 1.60496 55.126 13.1719L45.2303 23.0753C44.419 22.2714 43.323 21.8201 42.1803 21.8201C41.0311 21.8201 39.9289 22.2767 39.1162 23.0893L34.1665 28.0391L29.2167 23.0893C28.4041 22.2767 27.3019 21.8201 26.1526 21.8201C25.0033 21.8201 23.9011 22.2767 23.0885 23.0893C22.2758 23.902 21.8193 25.0042 21.8193 26.1535C21.8193 27.3027 22.2758 28.4049 23.0885 29.2176L28.0382 34.1674L23.0885 39.1171C22.2758 39.9298 21.8193 41.032 21.8193 42.1812C21.8193 43.3279 22.2738 44.4278 23.083 45.2399L13.189 13.1899ZM13.189 13.1899C1.60421 24.7746 1.60368 43.5578 13.1874 55.1433L13.1897 55.1409C1.60563 43.5564 1.60538 24.7747 13.189 13.1899ZM57.246 11.0493C44.4881 -1.68912 23.8193 -1.68309 11.0688 11.0674C11.0684 11.0677 11.068 11.0681 11.0676 11.0685M57.246 11.0493L11.0676 11.0685M57.246 11.0493C57.2524 11.0557 57.2589 11.0621 57.2653 11.0685M57.246 11.0493L57.2653 11.0685M11.0676 11.0685C-1.68922 23.8254 -1.68922 44.5093 11.0676 57.2662M11.0676 11.0685V57.2662M57.2653 11.0685C70.0221 23.8254 70.0221 44.5093 57.2653 57.2662M57.2653 11.0685V57.2662M11.0676 57.2662C23.8245 70.023 44.5084 70.023 57.2653 57.2662M11.0676 57.2662H57.2653M56.1862 12.1108L55.126 13.1719M45.2303 23.0753L43.1098 25.1975M25.2035 43.1177L12.1295 56.202M31.2202 35.228L32.2808 34.1674L31.2202 33.1067L25.2098 27.0963C24.9597 26.8462 24.8193 26.5071 24.8193 26.1535C24.8193 25.7999 24.9597 25.4607 25.2098 25.2107C25.4598 24.9606 25.799 24.8201 26.1526 24.8201C26.5062 24.8201 26.8454 24.9606 27.0954 25.2107L33.1058 31.2211L34.1665 32.2817L35.2271 31.2211L41.2375 25.2107C41.4876 24.9606 41.8267 24.8201 42.1803 24.8201C42.5277 24.8201 42.8611 24.9557 43.1098 25.1975L25.2035 43.1177C24.9574 42.8683 24.8193 42.5319 24.8193 42.1812C24.8193 41.8276 24.9597 41.4885 25.2098 41.2384L31.2202 35.228Z" fill="black" stroke="#06F421" stroke-width="3"/>
</svg>
